<svg width="24" height="24" viewBox="0 0 24 24" fill="none" xmlns="http://www.w3.org/2000/svg">
<path d="M9.9 7H14.1C15.7 7 17 8.3 17 9.9V14.1C17 14.8691 16.6945 15.6068 16.1506 16.1506C15.6068 16.6945 14.8691 17 14.1 17H9.9C8.3 17 7 15.7 7 14.1V9.9C7 9.13087 7.30553 8.39325 7.84939 7.84939C8.39325 7.30553 9.13087 7 9.9 7ZM9.8 8C9.32261 8 8.86477 8.18964 8.52721 8.52721C8.18964 8.86477 8 9.32261 8 9.8V14.2C8 15.195 8.805 16 9.8 16H14.2C14.6774 16 15.1352 15.8104 15.4728 15.4728C15.8104 15.1352 16 14.6774 16 14.2V9.8C16 8.805 15.195 8 14.2 8H9.8ZM14.625 8.75C14.7908 8.75 14.9497 8.81585 15.0669 8.93306C15.1842 9.05027 15.25 9.20924 15.25 9.375C15.25 9.54076 15.1842 9.69973 15.0669 9.81694C14.9497 9.93415 14.7908 10 14.625 10C14.4592 10 14.3003 9.93415 14.1831 9.81694C14.0658 9.69973 14 9.54076 14 9.375C14 9.20924 14.0658 9.05027 14.1831 8.93306C14.3003 8.81585 14.4592 8.75 14.625 8.75ZM12 9.5C12.663 9.5 13.2989 9.76339 13.7678 10.2322C14.2366 10.7011 14.5 11.337 14.5 12C14.5 12.663 14.2366 13.2989 13.7678 13.7678C13.2989 14.2366 12.663 14.5 12 14.5C11.337 14.5 10.7011 14.2366 10.2322 13.7678C9.76339 13.2989 9.5 12.663 9.5 12C9.5 11.337 9.76339 10.7011 10.2322 10.2322C10.7011 9.76339 11.337 9.5 12 9.5ZM12 10.5C11.6022 10.5 11.2206 10.658 10.9393 10.9393C10.658 11.2206 10.5 11.6022 10.5 12C10.5 12.3978 10.658 12.7794 10.9393 13.0607C11.2206 13.342 11.6022 13.5 12 13.5C12.3978 13.5 12.7794 13.342 13.0607 13.0607C13.342 12.7794 13.5 12.3978 13.5 12C13.5 11.6022 13.342 11.2206 13.0607 10.9393C12.7794 10.658 12.3978 10.5 12 10.5Z" fill="white"/>
<circle cx="12" cy="12" r="11.5" stroke="white"/>
</svg>
