<svg width="24" height="24" viewBox="0 0 24 24" fill="none" xmlns="http://www.w3.org/2000/svg">
<path fill-rule="evenodd" clip-rule="evenodd" d="M8.99236 8.26186C8.99236 8.10707 9.11938 7.98214 9.27498 7.98214H14.7258C14.8814 7.98214 15.0076 8.10786 15.0076 8.26186V16.7381C15.0077 16.7748 15.0005 16.8112 14.9864 16.8451C14.9723 16.8791 14.9516 16.9099 14.9254 16.9359C14.8992 16.9619 14.8681 16.9825 14.8338 16.9966C14.7996 17.0106 14.7629 17.0179 14.7258 17.0179H9.27498C9.20003 17.0179 9.12814 16.9884 9.07514 16.9359C9.02214 16.8835 8.99236 16.8123 8.99236 16.7381V8.26186ZM9.27498 7C8.5708 7 8 7.56493 8 8.26186V16.7381C8 17.4351 8.5716 18 9.27498 18H14.7258C15.4292 18 16 17.4351 16 16.7381V8.26186C16 7.56493 15.43 7 14.7258 7H9.27498ZM11.6114 14.6984C11.4272 14.6984 11.2505 14.7709 11.1202 14.8998C10.9899 15.0287 10.9167 15.2036 10.9167 15.3859C10.9167 15.5683 10.9899 15.7431 11.1202 15.8721C11.2505 16.001 11.4272 16.0734 11.6114 16.0734H12.3894C12.5736 16.0734 12.7503 16.001 12.8806 15.8721C13.0109 15.7431 13.0841 15.5683 13.0841 15.3859C13.0841 15.2036 13.0109 15.0287 12.8806 14.8998C12.7503 14.7709 12.5736 14.6984 12.3894 14.6984H11.6114Z" fill="white"/>
<circle cx="12" cy="12" r="11.5" stroke="white"/>
</svg>
