<svg width="24" height="24" viewBox="0 0 24 24" fill="none" xmlns="http://www.w3.org/2000/svg">
<path d="M16.2105 17C16.4199 17 16.6207 16.9168 16.7688 16.7688C16.9168 16.6207 17 16.4199 17 16.2105V14.3684C17 14.159 16.9168 13.9582 16.7688 13.8102C16.6207 13.6621 16.4199 13.5789 16.2105 13.5789C15.5947 13.5789 14.9895 13.4842 14.4105 13.2895C14.2721 13.2458 14.1244 13.2408 13.9833 13.2752C13.8423 13.3095 13.7134 13.3818 13.6105 13.4842L12.8526 14.2421C11.5433 13.5276 10.4671 12.4515 9.75263 11.1421L10.5053 10.3895C10.7211 10.1842 10.8 9.87895 10.7053 9.58421C10.5158 9.01053 10.4211 8.40526 10.4211 7.78947C10.4211 7.58009 10.3379 7.37929 10.1898 7.23123C10.0418 7.08318 9.84096 7 9.63158 7H7.78947C7.58009 7 7.37929 7.08318 7.23123 7.23123C7.08318 7.37929 7 7.58009 7 7.78947C7 12.8684 11.1316 17 16.2105 17ZM7.78947 7.52632H9.63158C9.70137 7.52632 9.76831 7.55404 9.81766 7.60339C9.86701 7.65274 9.89474 7.71968 9.89474 7.78947C9.89474 8.46316 10 9.12105 10.2053 9.74737C10.2316 9.82105 10.2263 9.92632 10.1421 10.0105L9.10526 11.0421C9.97368 12.7421 11.2474 14.0158 12.9526 14.8947L13.9789 13.8579C14.0526 13.7842 14.1526 13.7632 14.2474 13.7895C14.8789 14 15.5368 14.1053 16.2105 14.1053C16.2803 14.1053 16.3473 14.133 16.3966 14.1823C16.446 14.2317 16.4737 14.2986 16.4737 14.3684V16.2105C16.4737 16.2803 16.446 16.3473 16.3966 16.3966C16.3473 16.446 16.2803 16.4737 16.2105 16.4737C11.4211 16.4737 7.52632 12.5789 7.52632 7.78947C7.52632 7.71968 7.55404 7.65274 7.60339 7.60339C7.65274 7.55404 7.71968 7.52632 7.78947 7.52632Z" fill="white"/>
<circle cx="12" cy="12" r="11.5" stroke="white"/>
</svg>
